HIERARCHY
ROOT SpineBase
{
  OFFSET 0.000000 0.000000 0.000000
  CHANNELS 6 Xposition Yposition Zposition Zrotation Xrotation Yrotation
  JOINT SpineMid
  {
    OFFSET -0.000000 30.752908 0.000000
    CHANNELS 3 Zrotation Xrotation Yrotation
    JOINT SpineShoulder
    {
      OFFSET -0.141071 22.888933 -0.766067
      CHANNELS 3 Zrotation Xrotation Yrotation
      JOINT Neck
      {
        OFFSET -0.111018 7.593296 -0.575904
        CHANNELS 3 Zrotation Xrotation Yrotation
        JOINT Head
        {
          OFFSET -1.378549 14.017039 -2.890667
          CHANNELS 3 Zrotation Xrotation Yrotation
          End Site
          {
            OFFSET 0 0 0
          }
        }
      }
      JOINT ShoulderLeft
      {
        OFFSET -12.274434 -3.168057 -3.933201
        CHANNELS 3 Zrotation Xrotation Yrotation
        JOINT ElbowLeft
        {
          OFFSET -4.327401 -26.577575 4.388556
          CHANNELS 3 Zrotation Xrotation Yrotation
          JOINT WristLeft
          {
            OFFSET -0.414775 -27.285405 -11.435079
            CHANNELS 3 Zrotation Xrotation Yrotation
            JOINT HandLeft
            {
              OFFSET 1.730143 -3.345327 0.542849
              CHANNELS 3 Zrotation Xrotation Yrotation
              JOINT HandTipLeft
              {
                OFFSET 0.617513 -5.028304 0.540453
                CHANNELS 3 Zrotation Xrotation Yrotation
                End Site
                {
                  OFFSET 0 0 0
                }
              }
              JOINT ThumbLeft
              {
                OFFSET -3.954598 1.119699 -2.954925
                CHANNELS 3 Zrotation Xrotation Yrotation
                End Site
                {
                  OFFSET 0 0 0
                }
              }
            }
          }
        }
      }
      JOINT ShoulderRight
      {
        OFFSET 16.393753 -2.801387 -3.655279
        CHANNELS 3 Zrotation Xrotation Yrotation
        JOINT ElbowRight
        {
          OFFSET 4.668634 -23.845350 0.709242
          CHANNELS 3 Zrotation Xrotation Yrotation
          JOINT WristRight
          {
            OFFSET -3.390548 -20.802531 -8.245324
            CHANNELS 3 Zrotation Xrotation Yrotation
            JOINT HandRight
            {
              OFFSET -2.959593 -4.451455 -0.054441
              CHANNELS 3 Zrotation Xrotation Yrotation
              JOINT HandTipRight
              {
                OFFSET -0.653883 -7.574551 -1.377472
                CHANNELS 3 Zrotation Xrotation Yrotation
                End Site
                {
                  OFFSET 0 0 0
                }
              }
              JOINT ThumbRight
              {
                OFFSET 2.360634 0.337551 -2.533431
                CHANNELS 3 Zrotation Xrotation Yrotation
                End Site
                {
                  OFFSET 0 0 0
                }
              }
            }
          }
        }
      }
    }
  }
  JOINT HipLeft
  {
    OFFSET -8.664543 1.453423 -3.211412
    CHANNELS 3 Zrotation Xrotation Yrotation
    JOINT KneeLeft
    {
      OFFSET -1.917771 -26.084272 1.318853
      CHANNELS 3 Zrotation Xrotation Yrotation
      JOINT AnkleLeft
      {
        OFFSET -1.012443 -37.958842 9.929400
        CHANNELS 3 Zrotation Xrotation Yrotation
        JOINT FootLeft
        {
          OFFSET -2.758490 -7.898222 -4.501399
          CHANNELS 3 Zrotation Xrotation Yrotation
          End Site
          {
            OFFSET 0 0 0
          }
        }
      }
    }
  }
  JOINT HipRight
  {
    OFFSET 7.323409 0.718447 -3.490748
    CHANNELS 3 Zrotation Xrotation Yrotation
    JOINT KneeRight
    {
      OFFSET 0.946472 -30.084133 4.135633
      CHANNELS 3 Zrotation Xrotation Yrotation
      JOINT AnkleRight
      {
        OFFSET -0.688628 -33.729634 7.612922
        CHANNELS 3 Zrotation Xrotation Yrotation
        JOINT FootRight
        {
          OFFSET 1.971535 -5.764688 -6.579887
          CHANNELS 3 Zrotation Xrotation Yrotation
          End Site
          {
            OFFSET 0 0 0
          }
        }
      }
    }
  }
}
MOTION
Frames: 13
Frame Time: 0.033333
64.382528 70.512736 316.021488 0.000000 0.000000 1.000950 -0.000000 0.000000 -1.000950 -0.000000 0.000000 0.000000 -0.000000 0.000000 0.000000 0.000000 0.000000 0.000000 -0.000000 0.000000 0.000000 -0.000000 0.000000 0.000000 -0.000000 0.000000 0.000000 -0.000000 0.000000 0.000000 0.000000 0.000000 0.000000 0.000000 0.000000 0.000000 -0.000000 0.000000 0.000000 -0.000000 0.000000 0.000000 -0.000000 0.000000 0.000000 -0.000000 0.000000 0.000000 0.000000 0.000000 0.000000 0.000000 0.000000 0.000000 -0.000000 0.000000 -1.000950 -0.000000 0.000000 0.000000 -0.000000 0.000000 0.000000 0.000000 0.000000 0.000000 -0.000000 0.000000 -1.000950 -0.000000 0.000000 0.000000 -0.000000 0.000000 0.000000 0.000000 0.000000 0.000000
64.421301 70.496418 315.975621 -0.022685 -0.014749 0.894905 0.022913 0.014393 -0.894910 -0.000000 0.000000 0.000000 -0.000000 0.000000 0.000000 0.000000 0.000000 0.000000 -0.000000 0.000000 0.000000 -0.000000 0.000000 0.000000 -1.214022 1.150043 0.412912 2.970442 -0.468442 -0.088493 0.000000 0.000000 0.000000 0.000000 0.000000 0.000000 -0.000000 0.000000 0.000000 -0.000000 0.000000 0.000000 -0.000000 0.000000 0.000000 -0.715157 -0.398159 0.161959 0.000000 0.000000 0.000000 0.000000 0.000000 0.000000 0.022913 0.014393 -0.894910 -0.000000 0.000000 0.000000 -0.000000 0.000000 0.000000 0.000000 0.000000 0.000000 0.022913 0.014393 -0.894910 -0.000000 0.000000 0.000000 -1.794978 6.657072 4.175877 0.000000 0.000000 0.000000
64.455121 70.477103 315.933716 -0.047013 -0.034487 0.806982 0.047494 0.033821 -0.807010 -0.000000 0.000000 0.000000 -0.000000 0.000000 0.000000 0.000000 0.000000 0.000000 -0.000000 0.000000 0.000000 -0.000000 0.000000 0.000000 -2.235993 1.905803 0.668597 4.768757 -0.716743 -0.110433 0.000000 0.000000 0.000000 0.000000 0.000000 0.000000 -0.000000 0.000000 0.000000 -0.000000 0.000000 0.000000 -0.903013 0.149136 -0.086481 -0.398559 -0.870003 0.376427 0.000000 0.000000 0.000000 0.000000 0.000000 0.000000 0.047494 0.033821 -0.807010 -0.000000 0.000000 0.000000 -0.000000 0.000000 0.000000 0.000000 0.000000 0.000000 0.047494 0.033821 -0.807010 -0.000000 0.000000 0.000000 -3.544983 11.696531 7.604085 0.000000 0.000000 0.000000
64.483986 70.454792 315.895773 -0.072983 -0.059209 0.737265 0.073739 0.058265 -0.737340 -0.000000 0.000000 0.000000 -0.000000 0.000000 0.000000 0.000000 0.000000 0.000000 -0.000000 0.000000 0.000000 -0.000000 0.000000 0.000000 -3.057078 2.266643 0.749459 5.382112 -0.728611 -0.118823 0.000000 0.000000 0.000000 0.000000 0.000000 0.000000 -0.000000 0.000000 0.000000 -0.000000 0.000000 0.000000 -1.317688 0.291237 -0.172840 -0.432013 -1.251946 0.557776 0.000000 0.000000 0.000000 0.000000 0.000000 0.000000 0.073739 0.058265 -0.737340 -0.000000 0.000000 0.000000 -0.000000 0.000000 0.000000 0.000000 0.000000 0.000000 0.073739 0.058265 -0.737340 -0.000000 0.000000 0.000000 -5.126002 15.479697 10.392729 0.000000 0.000000 0.000000
64.507898 70.429485 315.861791 -0.100593 -0.088911 0.685805 0.101650 0.087701 -0.685961 -0.000000 0.000000 0.000000 -0.000000 0.000000 0.000000 0.000000 0.000000 0.000000 -0.000000 0.000000 0.000000 -0.000000 0.000000 0.000000 -3.671948 2.229893 0.641495 4.813601 -0.495916 -0.127476 0.000000 0.000000 0.000000 0.000000 0.000000 0.000000 -0.000000 0.000000 0.000000 -0.000000 0.000000 0.000000 -1.705185 0.478856 -0.287532 -0.345675 -1.590528 0.735087 0.000000 0.000000 0.000000 0.000000 0.000000 0.000000 0.101650 0.087701 -0.685961 -0.000000 0.000000 0.000000 -0.529637 -0.611998 0.513503 0.000000 0.000000 0.000000 0.101650 0.087701 -0.685961 -0.000000 0.000000 0.000000 -6.492070 18.316899 12.642832 0.000000 0.000000 0.000000
64.526856 70.401181 315.831771 -0.129841 -0.123590 0.652624 0.131240 0.122103 -0.652904 -0.000000 0.000000 0.000000 0.861063 0.387547 0.212770 0.000000 0.000000 0.000000 -0.000000 0.000000 0.000000 0.278478 0.877392 -0.131760 -4.357514 0.904535 0.398871 3.082172 -0.016617 -0.108839 0.000000 0.000000 0.000000 0.000000 0.000000 0.000000 -0.000000 0.000000 0.000000 -0.000000 0.000000 0.000000 -2.063656 0.711915 -0.430081 -0.134904 -1.880576 0.909224 0.000000 0.000000 0.000000 0.000000 0.000000 0.000000 0.131240 0.122103 -0.652904 -0.000000 0.000000 0.000000 -0.892855 -0.805182 0.784810 0.000000 0.000000 0.000000 0.131240 0.122103 -0.652904 -0.000000 0.000000 0.000000 -7.635730 20.442013 14.440274 0.000000 0.000000 0.000000
64.549210 70.364658 315.804956 -0.164381 -0.155836 0.692921 0.166254 0.153836 -0.693367 -0.000000 0.000000 0.000000 1.138459 0.390802 0.269265 0.000000 0.000000 0.000000 -0.495507 -1.139773 0.098606 0.904373 2.814583 -0.315816 -3.781127 -2.447808 -0.891385 -1.354692 1.149750 0.554868 0.000000 0.000000 0.000000 0.000000 0.000000 0.000000 -0.000000 0.000000 0.000000 0.078412 -0.811234 0.101996 -2.245640 1.840403 -0.698214 0.356787 -1.313642 0.986925 0.000000 0.000000 0.000000 0.000000 0.000000 0.000000 0.166254 0.153836 -0.693367 -0.000000 0.000000 0.000000 -1.354261 -1.035042 1.122243 0.000000 0.000000 0.000000 0.166254 0.153836 -0.693367 -0.000000 0.000000 0.000000 -10.372007 25.054910 18.558867 0.000000 0.000000 0.000000
64.557951 70.332954 315.788878 -0.200850 -0.190462 0.734582 0.203276 0.187871 -0.735249 -0.000000 0.000000 0.000000 1.392237 0.281755 0.311200 0.000000 0.000000 0.000000 -0.615343 -1.669398 0.160733 1.151796 4.265393 -0.462199 -4.450943 -2.843365 -0.714873 -5.923556 0.414836 -0.217571 0.000000 0.000000 0.000000 0.000000 0.000000 0.000000 -0.000000 0.000000 0.000000 0.110747 -0.801709 0.087807 -2.701385 2.436891 -1.051098 1.350344 -2.615872 1.349495 0.000000 0.000000 0.000000 0.000000 0.000000 0.000000 0.203276 0.187871 -0.735249 -0.000000 0.000000 0.000000 -2.056816 -1.398343 1.636668 0.000000 0.000000 0.000000 0.203276 0.187871 -0.735249 -0.000000 0.000000 0.000000 -10.679024 25.517888 19.003751 0.000000 0.000000 0.000000
64.548389 70.304607 315.779794 -0.240671 -0.235967 0.743176 0.243713 0.232823 -0.744166 -0.000000 0.000000 0.000000 1.617990 0.248000 0.354246 0.000000 0.000000 0.000000 -0.712459 -2.245418 0.233052 1.453795 5.733445 -0.659496 -5.121047 -3.290727 -0.550770 -9.577210 0.792675 -0.697394 0.000000 0.000000 0.000000 0.000000 0.000000 0.000000 -0.000000 0.000000 0.000000 0.087891 -0.806751 0.097559 -3.152320 2.950337 -1.357283 2.304925 -2.521812 1.572458 0.000000 0.000000 0.000000 0.000000 0.000000 0.000000 0.243713 0.232823 -0.744166 -0.000000 0.000000 0.000000 -2.491623 -1.681572 1.972352 0.000000 0.000000 0.000000 0.243713 0.232823 -0.744166 -0.000000 0.000000 0.000000 -9.658799 23.640156 17.449899 0.000000 0.000000 0.000000
64.544642 70.276434 315.760492 -0.279079 -0.294712 0.695693 0.282641 0.291298 -0.697129 -0.000000 0.000000 0.000000 2.001504 0.119120 0.421801 0.000000 0.000000 0.000000 -0.881958 -2.777748 0.283855 1.989335 6.971835 -0.921200 -5.440823 -4.237107 -0.590708 -10.246193 2.107736 -0.318941 0.000000 0.000000 0.000000 0.000000 0.000000 0.000000 -0.000000 0.000000 0.000000 -0.000000 0.000000 0.000000 -2.962673 2.085494 -1.274290 2.042715 -2.539300 1.563938 0.000000 0.000000 0.000000 0.000000 0.000000 0.000000 0.282641 0.291298 -0.697129 -0.000000 0.000000 0.000000 -3.442698 -1.871877 2.556778 0.000000 0.000000 0.000000 0.282641 0.291298 -0.697129 -0.000000 0.000000 0.000000 -9.712927 23.619277 17.507250 0.000000 0.000000 0.000000
64.538701 70.227261 315.733650 -0.306608 -0.370274 0.545675 0.310127 0.367332 -0.547660 -0.000000 0.000000 0.000000 2.445685 -0.073644 0.497654 0.000000 0.000000 0.000000 -1.088079 -3.230208 0.313787 2.623950 7.840037 -1.198936 -5.496681 -4.122998 -0.071683 -11.525462 2.423390 -0.671356 0.000000 0.000000 0.000000 0.000000 0.000000 0.000000 -0.000000 0.000000 0.000000 -0.000000 0.000000 0.000000 -2.940270 1.806750 -1.099979 2.391741 -2.728025 1.362522 0.000000 0.000000 0.000000 0.000000 0.000000 0.000000 0.876006 -0.432159 -0.459960 -0.572323 0.794901 -0.083410 -4.565786 -1.852795 3.161135 0.000000 0.000000 0.000000 0.310127 0.367332 -0.547660 -0.000000 0.000000 0.000000 -9.781673 23.590013 17.579528 0.000000 0.000000 0.000000
64.517086 70.163247 315.701703 -0.324077 -0.463454 0.384645 0.327192 0.461260 -0.387273 -0.000000 0.000000 0.000000 2.868579 -0.183966 0.576595 0.000000 0.000000 0.000000 -1.377144 -3.561873 0.307723 3.421734 8.330307 -1.487702 -6.074571 -3.082341 0.773968 -10.015960 3.411132 -0.904375 0.000000 0.000000 0.000000 0.000000 0.000000 0.000000 -0.000000 0.000000 0.000000 -0.140383 -0.941825 0.208636 -2.691053 2.957397 -1.393567 1.544233 -3.691692 1.661674 0.000000 0.000000 0.000000 0.000000 0.000000 0.000000 1.363853 -0.552288 -0.259654 -1.041372 1.008749 -0.117628 -5.886294 -1.549348 3.779072 0.000000 0.000000 0.000000 0.327192 0.461260 -0.387273 -0.000000 0.000000 0.000000 -9.846294 23.553185 17.645522 0.000000 0.000000 0.000000
64.451591 70.095960 315.664777 -0.353311 -0.622431 0.198875 -0.010340 -0.168002 -0.218294 -0.020614 -0.066030 -0.024661 3.850852 0.790878 0.695385 0.000000 0.000000 0.000000 -1.677694 -3.808831 0.400949 4.805898 9.890943 -2.002049 -8.427066 0.504838 2.989625 -8.311853 1.816303 -3.063024 0.000000 0.000000 0.000000 0.000000 0.000000 0.000000 0.383085 0.856769 0.038737 -0.338454 -1.237673 0.333494 -2.415820 3.735903 -1.814543 -0.601414 -4.455953 2.251256 0.000000 0.000000 0.000000 0.000000 0.000000 0.000000 1.924559 -0.746939 -0.021153 -1.569929 1.367268 -0.161113 -8.115815 -5.924774 6.306968 0.000000 0.000000 0.000000 0.355490 0.621189 -0.202721 0.802873 -0.646434 0.198717 -10.757627 24.157531 17.712573 0.000000 0.000000 0.000000
